<?xml version="1.0" encoding="utf-8"?>
<!-- Generator: Adobe Illustrator 18.0.0, SVG Export Plug-In . SVG Version: 6.00 Build 0)  -->
<!DOCTYPE svg PUBLIC "-//W3C//DTD SVG 1.1//EN" "http://www.w3.org/Graphics/SVG/1.1/DTD/svg11.dtd">
<svg version="1.1"
	 id="svg4160" xmlns:cc="http://creativecommons.org/ns#" xmlns:dc="http://purl.org/dc/elements/1.1/" xmlns:inkscape="http://www.inkscape.org/namespaces/inkscape" xmlns:sodipodi="http://sodipodi.sourceforge.net/DTD/sodipodi-0.dtd" xmlns:svg="http://www.w3.org/2000/svg" xmlns:rdf="http://www.w3.org/1999/02/22-rdf-syntax-ns#" inkscape:version="1.0.2 (e86c870879, 2021-01-15, custom)" sodipodi:docname="klipper.svg"
	 xmlns="http://www.w3.org/2000/svg" xmlns:xlink="http://www.w3.org/1999/xlink" x="0px" y="0px" viewBox="0 0 64 64"
	 enable-background="new 0 0 64 64" xml:space="preserve">
<sodipodi:namedview  inkscape:cy="34.186983" inkscape:cx="27.157851" showgrid="false" inkscape:zoom="9.453125" id="namedview8" guidetolerance="10" borderopacity="1" objecttolerance="10" gridtolerance="10" bordercolor="#666666" pagecolor="#ffffff" inkscape:snap-bbox-edge-midpoints="true" inkscape:snap-bbox-midpoints="true" inkscape:bbox-nodes="true" inkscape:bbox-paths="true" inkscape:snap-bbox="true" inkscape:pagecheckerboard="true" inkscape:document-rotation="0" inkscape:current-layer="layer2" inkscape:window-maximized="1" inkscape:window-height="837" inkscape:window-x="-8" inkscape:window-width="1600" inkscape:pageshadow="2" inkscape:window-y="-8" inkscape:pageopacity="0">
	<inkscape:grid  type="xygrid" id="grid832"></inkscape:grid>
</sodipodi:namedview>
<g>
	<path d="M33,21.2c-0.4,1.4-1,3.5-1.9,6.1c-1.1,3.4-2,6.3-2.8,8.7c-1,3-1.6,4.7-1.9,5c-0.4,0.6-1,1-1.9,1.4
		c-0.8,0.3-1.7,0.5-2.6,0.5c-0.9,0-1.8-0.2-2.6-0.5c-0.8-0.3-1.4-0.8-1.8-1.4c-0.3-0.3-0.9-2-1.9-5c-0.7-2.2-1.7-5.1-2.8-8.7
		c-0.6-2-1.3-4.1-1.9-6.2h5.1l5.6,16.7c0,0.2,0.2,0.3,0.4,0.3c0.2,0,0.4-0.1,0.5-0.3l5.5-16.7H33z"/>
	<path d="M52.1,25.6H40.7c-0.5,0-0.9,0.2-1.2,0.6C39.1,26.6,39,27,39,27.5c0,0.5,0.1,1,0.4,1.3c0.3,0.4,0.7,0.6,1.2,0.6h6.7
		c1.8,0,3.3,0.7,4.3,2c1,1.2,1.4,2.7,1.4,4.5c0,1.8-0.5,3.3-1.4,4.5c-1.1,1.4-2.5,2-4.3,2H35.2V38h11.5c0.5,0,0.9-0.2,1.2-0.6
		c0.3-0.4,0.4-0.8,0.4-1.4c0-0.5-0.1-1-0.4-1.3s-0.7-0.6-1.2-0.6h-6.7c-1.8,0-3.3-0.7-4.3-2c-1-1.2-1.5-2.7-1.5-4.5
		c0-1.8,0.5-3.2,1.4-4.5c1.1-1.4,2.5-2,4.4-2h12.2V25.6z"/>
</g>
<g>
	<path d="M32,62.5C15.2,62.5,1.5,48.8,1.5,32S15.2,1.5,32,1.5S62.5,15.2,62.5,32S48.8,62.5,32,62.5z M32,3.5
		C16.3,3.5,3.5,16.3,3.5,32c0,15.7,12.8,28.5,28.5,28.5c15.7,0,28.5-12.8,28.5-28.5C60.5,16.3,47.7,3.5,32,3.5z"/>
</g>
<g>
	<path d="M32,59C17.1,59,5,46.9,5,32S17.1,5,32,5s27,12.1,27,27S46.9,59,32,59z M32,5.7C17.5,5.7,5.7,17.5,5.7,32
		c0,14.5,11.8,26.3,26.3,26.3c14.5,0,26.3-11.8,26.3-26.3C58.3,17.5,46.5,5.7,32,5.7z"/>
</g>
</svg>
